<?xml version="1.0" encoding="utf-8"?>
<!-- Generator: Adobe Illustrator 16.0.0, SVG Export Plug-In . SVG Version: 6.00 Build 0)  -->
<!DOCTYPE svg PUBLIC "-//W3C//DTD SVG 1.1//EN" "http://www.w3.org/Graphics/SVG/1.1/DTD/svg11.dtd">
<svg version="1.1" id="fishpath-tnc-vertical" xmlns="http://www.w3.org/2000/svg" xmlns:xlink="http://www.w3.org/1999/xlink"
	 x="0px" y="0px" width="404.703px" height="443.962px" viewBox="0 0 404.703 443.962" enable-background="new 0 0 404.703 443.962"
	 xml:space="preserve">
<g id="vertical_pairing">
	<g>
		<path fill="#FFFFFF" d="M305.769,323.673c-0.225,1.295-0.312,4.475,1.549,4.068c2.477-0.531,2.154-0.789,3.514-1.973
			c0.904-0.795,3.125,1.373,0.035,4.82c-1.688,1.891-2.059,2.471-1.154,3.562c0.939,1.133,3.387,1.566,3.387,5.059
			c0,3.066,3.936,0.844,4.889-0.352c0.932-1.168,1.617-6.504,4.271-2.619c1.881,2.762-1.334,8.674,2.535,9.254
			c3.178,0.479,3.732,4.098,3.822,5.021c0.012,0.131,0.02,0.213,0.02,0.213c8.121-7.799,2.709-17.891,2.508-19.115
			c-0.35-2.189,0.832-1.389,2.279-0.047c-5.988-11.232-17.805-18.879-31.412-18.879c-2.348,0-4.645,0.236-6.865,0.672
			C302.155,313.505,307.052,316.31,305.769,323.673"/>
		<path fill="#FFFFFF" d="M324.427,366.57c-2.184,0.875-3.133-0.527-4.756,1.055c-1.781,1.742,3.916,5.156-6.572,2.766
			c-4.684-1.068-4.045,4.023-9.305,1.352c-1.455-3.469-1.498-5.51-0.256-7.68c1.451-2.543,1.973-1.688,1.09-4.484
			c-0.348-1.094-0.012-1.578,0.564-3.1c0.574-1.521-0.164-3.627-2.305-3.508c-2.85,0.158-2.52,1.451-4.277,2.631
			c-1.18,0.789-3.168-3.223,1-6.832c2.283-1.969,2.82-2.605,2.066-4.119c-0.783-1.578-2.227-1.01-2.811-2.822
			c-0.447-1.391,0.248-4.012-1.754-4.637c-2.273-0.711-4.084,2.537-5.395,3.812c-1.529,1.479-3.197,4.127-4.02,2.016
			c-1.459-3.758,5.244-9.354,1.113-10.84c-3.893-1.398-5.158-5.484-5.158-5.484c-10.68,7.922-5.621,14.891-6.512,16.125
			s-2.602-1.5-4.043-0.191c-1.111,1.012-2.102,7.488,4.74,11.598c2.596,1.555,3.445,1.953,2.822,2.895
			c-0.498,0.746-2.574,0.119-2.543,1.828c0.07,3.434,5.576,2.402,6.578,6.701c0.939,4.016,18.018,6.42,18.018,6.42
			c-0.02-0.02,0.076,0.008,0.213,0.047l0.812,0.453c0.254,1.059,1.271,3.486,3.646,4.707c3.932,2.023-0.242,1.051,0.295,2.477
			c0.271,0.727,3.059,2.605,8.02,1.467c6.852-2.861,12.617-7.811,16.512-14.049C327.97,363.859,327.653,364.542,324.427,366.57"/>
		<path fill="#71A850" d="M302.929,372.119c-0.141-0.041-0.234-0.068-0.217-0.051c0,0-17.076-2.4-18.016-6.418
			c-1.002-4.299-6.51-3.27-6.578-6.701c-0.029-1.707,2.047-1.08,2.543-1.826c0.621-0.943-0.227-1.34-2.82-2.896
			c-6.844-4.109-5.852-10.588-4.74-11.598c1.438-1.309,3.15,1.426,4.041,0.191c0.889-1.234-4.168-8.201,6.512-16.123
			c0,0,1.268,4.086,5.16,5.482c4.129,1.488-2.576,7.082-1.117,10.84c0.822,2.111,2.492-0.539,4.02-2.02
			c1.312-1.271,3.123-4.52,5.396-3.809c2.002,0.625,1.307,3.246,1.754,4.637c0.584,1.811,2.027,1.242,2.811,2.822
			c0.752,1.514,0.217,2.15-2.066,4.119c-4.168,3.607-2.182,7.621-1.002,6.832c1.758-1.18,1.428-2.475,4.279-2.631
			c2.141-0.123,2.877,1.986,2.305,3.508c-0.576,1.521-0.912,2.006-0.566,3.1c0.883,2.797,0.363,1.941-1.088,4.482
			c-1.244,2.172-1.199,4.213,0.256,7.682c5.258,2.672,4.623-2.418,9.307-1.352c10.488,2.393,4.787-1.023,6.572-2.764
			c1.621-1.584,2.57-0.182,4.754-1.057c3.234-2.029,3.543-2.715,7.805,0.621c3.426-5.473,5.418-11.941,5.418-18.873
			c0-6.027-1.508-11.705-4.152-16.688c-1.484-1.381-2.709-2.242-2.355-0.018c0.203,1.227,5.617,11.316-2.508,19.115
			c0,0-0.006-0.084-0.018-0.213c-0.088-0.922-0.646-4.545-3.822-5.023c-3.867-0.578-0.652-6.488-2.535-9.25
			c-2.654-3.887-3.34,1.449-4.27,2.617c-0.955,1.195-4.889,3.418-4.889,0.352c0-3.492-2.451-3.926-3.391-5.059
			c-0.904-1.094-0.531-1.672,1.156-3.562c3.09-3.447,0.867-5.615-0.037-4.82c-1.355,1.184-1.033,1.441-3.512,1.973
			c-1.861,0.406-1.773-2.773-1.549-4.066c1.283-7.375-3.619-10.176-10.646-10.316C278.737,316.57,266.38,331,266.38,348.318
			c0,19.682,15.953,35.635,35.631,35.635c4.857,0,9.486-0.979,13.707-2.738c-4.969,1.154-7.766-0.736-8.037-1.461
			c-0.535-1.426,3.637-0.453-0.297-2.477c-2.375-1.221-3.391-3.648-3.643-4.709L302.929,372.119z"/>
		<path fill="#71A850" d="M304.937,373.21c0,0-23.424-9.094-24.236-32.141C280.7,341.07,282.962,358.589,304.937,373.21"/>
		<path fill="#71A850" d="M304.761,312.742c0.668,0.074,5.711,0.746,11.039,4.148c1.98,1.852,4.785,6.402,0.457,15.734
			c0,0,5.543-7.488,4.143-12.031c4.652,4.666,8.561,12.062,8.709,23.785C329.108,344.378,334.276,315.013,304.761,312.742"/>
		<path fill="#71A850" d="M328.173,370.988c-1.787,1.084-4.688,3.641-9.422,2.145c0,0,1.854,1.426,4.834,1.352
			c-3.805,1.961-7.928,2.432-14.453,0.801c0,0,13.213,7.791,22.443-7.123C331.575,368.162,329.284,370.314,328.173,370.988"/>
		<path fill="#000100" d="M78.722,339.519c0,2.57,0.488,3.279,2.312,3.279v0.635h-7.568v-0.635c1.527,0,2.424-0.447,2.424-3.393
			v-16.285h-3.096c-2.867,0-4.172,0.816-4.357,3.051h-0.635v-4.879h0.635c0.297,0.26,0.635,0.445,1.158,0.594
			c0.484,0.117,1.152,0.186,2.049,0.186h11.18c1.863,0,2.719-0.221,3.391-0.779h0.67v4.879h-0.408
			c-0.414-1.785-1.117-3.051-4.51-3.051h-3.244V339.519z"/>
		<path fill="#000100" d="M101.763,340.261c0,2.016,0.371,2.535,2.121,2.535v0.637h-6.855v-0.637c1.793,0,2.199-0.412,2.199-2.125
			v-6.52c0-1.754-1.043-2.871-2.643-2.871c-1.492,0-2.574,0.707-3.842,2.498v7.232c0,1.373,0.557,1.785,2.195,1.785v0.637H87.86
			v-0.637c1.975-0.039,2.352-0.412,2.352-2.535v-17.18c0-1.715-0.49-1.977-2.352-1.977v-0.633l4.25-0.447h0.633v12.486
			c1.678-1.941,2.908-2.645,4.617-2.645c2.203,0,4.402,1.453,4.402,4.58V340.261z"/>
		<path fill="#000100" d="M107.927,335.382c-0.07,5.924,3.467,7.414,5.258,7.414c1.828,0,2.758-0.633,4.66-2.758v0.973
			c-1.604,2.049-3.133,2.826-5.441,2.826c-4.137,0-7.121-2.863-7.121-6.855c0-3.984,2.906-7.115,6.633-7.115
			c3.059,0,5.889,2.459,5.707,5.516H107.927z M115.122,334.748c0.113-2.908-1.865-4.1-3.541-4.1c-2.197,0-3.504,1.641-3.654,4.1
			H115.122z"/>
		<path fill="#000100" d="M151.896,351.441h-1.004l-23.869-29.418h-0.119v23.746c0,3.43,1.363,4.668,4.432,4.668v1.004h-10.277
			v-1.004c2.832,0,4.193-0.885,4.193-5.789v-19.789c0-3.783-1.004-5.91-5.021-6.266v-1h8.682l21.152,26.348h0.119v-19.793
			c0-4.432-1.186-5.555-4.135-5.555v-1h10.221v1c-3.307,0-4.373,1.359-4.373,5.316V351.441z"/>
		<path fill="#000100" d="M183.128,330.468h7.266v1.535h-7.266v13.473c0,2.895,1.479,4.371,3.783,4.371
			c1.537,0,2.658-0.592,3.898-2.01l0.648,0.768c-1.832,2.305-3.955,3.484-6.32,3.484c-3.543,0-6.025-2.48-6.025-6.084v-14.002
			h-3.959v-1.002c2.836-1.416,5.199-3.959,6.973-7.564h1.002V330.468z"/>
		<path fill="#000100" d="M214.212,347.484c0,2.303,0.768,2.953,3.602,2.953v1.006l-7.617,0.412v-3.84h-0.119
			c-2.07,2.719-4.49,4.074-7.328,4.074c-4.135,0-6.85-3.129-6.85-7.027v-10.693c0-2.01-0.711-2.779-3.725-2.779v-1.004l6.736-0.648
			h1.004v14.945c0,2.957,1.891,4.729,4.727,4.729c2.006,0,3.838-1.123,5.555-3.428v-11.281c0-2.898-0.477-3.25-4.076-3.312v-1.004
			l7.088-0.648h1.004V347.484z"/>
		<path fill="#000100" d="M227.192,347.484c0,2.303,0.707,2.953,3.484,2.953v1.006h-11.049v-1.006c3.191,0,3.549-0.826,3.549-4.016
			v-11.402c0-3.072-0.771-3.43-4.314-3.43v-1.004l7.326-0.648h1.004v4.547c3.9-3.365,5.729-4.547,7.148-4.547
			c1.184,0,2.777,0.711,3.842,1.652l-1.596,3.723c-1.713-0.943-3.549-1.828-4.963-1.828c-1.359,0-2.541,0.707-4.432,2.539V347.484z"
			/>
		<path fill="#000100" d="M242.702,338.681c-0.117,9.395,5.492,11.756,8.33,11.756c2.895,0,4.369-1.006,7.385-4.371v1.539
			c-2.539,3.246-4.963,4.484-8.627,4.484c-6.557,0-11.285-4.547-11.285-10.867c0-6.322,4.609-11.285,10.518-11.285
			c4.844,0,9.334,3.898,9.039,8.744H242.702z M254.104,337.677c0.178-4.607-2.953-6.5-5.613-6.5c-3.484,0-5.555,2.6-5.789,6.5
			H254.104z"/>
		<path fill="#000100" d="M88.856,359.744c-1.234-4.775-3.848-6.857-8.223-6.857c-6.105,0-9.381,4.91-9.381,11.414
			c0,7.605,3.939,12.602,9.643,12.602c3.98,0,6.945-1.855,8.85-5.572l0.66,0.619c-1.68,4.023-5.703,6.545-10.57,6.545
			c-6.102,0-12.471-4.158-12.471-12.604c0-8.047,5.527-13.975,13.092-13.975c3.184,0,5.572,1.061,7.072,1.061
			c0.668,0,1.107-0.266,1.373-0.797h0.711v7.564H88.856z"/>
		<path fill="#000100" d="M100.565,378.363c-4.91,0-8.58-3.539-8.58-8.273c0-4.773,3.67-8.312,8.58-8.312s8.58,3.539,8.58,8.312
			C109.146,374.824,105.476,378.363,100.565,378.363 M100.565,362.664c-3.312,0-5.307,2.918-5.307,7.426
			c0,4.027,1.682,7.389,5.307,7.389c3.715,0,5.309-3.582,5.309-7.389C105.874,366.156,104.194,362.664,100.565,362.664"/>
		<path fill="#000100" d="M127.317,374.472c0,2.031,0.441,2.652,2.654,2.652v0.75h-8.357v-0.75c2.121,0,2.697-0.488,2.697-1.945
			v-8.184c0-2.518-1.816-3.58-3.496-3.58c-1.549,0-2.918,0.973-4.467,3.051v7.65c0,2.387,0.309,3.008,2.654,3.008v0.75h-8.271v-0.75
			c2.078,0,2.607-0.18,2.607-3.008v-8.801c0-1.9-0.486-2.301-2.607-2.301v-0.75l4.863-0.488h0.754v3.137
			c1.857-2.117,3.67-3.137,5.66-3.137c2.609,0,5.309,1.861,5.309,5.617V374.472z"/>
		<path fill="#000100" d="M140.263,366.597c-0.311-2.609-2.035-3.934-3.895-3.934c-1.547,0-2.609,0.84-2.609,2.121
			c0,3.98,8.225,2.918,8.225,8.756c0,2.611-2.252,4.822-4.951,4.822c-1.727,0-3.227-1.152-3.98-1.152
			c-0.574,0-0.977,0.488-1.02,1.062h-0.75v-5.352h0.75c0.668,3.273,3.1,4.555,5.043,4.555c1.551,0,2.744-1.152,2.744-2.699
			c0-4.375-8.316-3.184-8.316-8.488c0-2.434,2.168-4.512,4.777-4.512c1.639,0,2.123,0.754,3.186,0.754
			c0.396,0,0.705-0.223,0.926-0.754h0.754v4.82H140.263z"/>
		<path fill="#000100" d="M146.794,368.324c-0.088,7.029,4.113,8.801,6.234,8.801c2.168,0,3.275-0.75,5.531-3.273V375
			c-1.904,2.432-3.719,3.363-6.459,3.363c-4.908,0-8.447-3.406-8.447-8.141c0-4.73,3.447-8.445,7.871-8.445
			c3.627,0,6.99,2.922,6.77,6.547H146.794z M155.331,367.57c0.133-3.449-2.211-4.859-4.201-4.859c-2.611,0-4.156,1.941-4.336,4.859
			H155.331z"/>
		<path fill="#000100" d="M166.087,374.914c0,1.723,0.531,2.211,2.609,2.211v0.754h-8.271v-0.754c2.389,0,2.654-0.621,2.654-3.008
			v-8.535c0-2.301-0.578-2.564-3.229-2.564v-0.752l5.482-0.488h0.754v3.404c2.918-2.52,4.291-3.404,5.352-3.404
			c0.885,0,2.078,0.531,2.875,1.24l-1.195,2.783c-1.283-0.705-2.652-1.369-3.715-1.369c-1.018,0-1.902,0.529-3.316,1.9V374.914z"/>
		<path fill="#000100" d="M184.751,374.07l3.051-7.916c0.754-2.033,0.754-2.959-1.547-3.139v-0.75h5.75v0.75
			c-1.812,0.18-2.254,0.574-3.008,2.254l-5.045,12.959h-0.748l-5-12.295c-1.062-2.561-1.459-2.828-3.316-2.918v-0.75h7.562v0.75
			c-1.504,0.135-1.9,0.973-1.191,2.697L184.751,374.07z"/>
		<path fill="#000100" d="M223.222,374.472c0,2.031,0.447,2.652,2.654,2.652v0.75h-8.357v-0.75c2.123,0,2.697-0.488,2.697-1.945
			v-8.184c0-2.518-1.816-3.58-3.496-3.58c-1.547,0-2.916,0.973-4.465,3.051v7.65c0,2.387,0.311,3.008,2.656,3.008v0.75h-8.273v-0.75
			c2.08,0,2.609-0.18,2.609-3.008v-8.801c0-1.9-0.488-2.301-2.609-2.301v-0.75l4.867-0.488h0.75v3.137
			c1.857-2.117,3.672-3.137,5.66-3.137c2.613,0,5.307,1.861,5.307,5.617V374.472z"/>
		<path fill="#000100" d="M240.63,367.304h-0.754c-0.666-2.826-2.654-4.643-5.264-4.643c-3.094,0-5.262,2.654-5.262,6.5
			c0,4.287,2.697,7.873,5.881,7.873c1.902,0,4.203-1.016,5.838-3.273v1.152c-1.68,2.297-4.07,3.449-6.898,3.449
			c-4.646,0-7.873-3.23-7.873-7.918c0-4.82,3.629-8.668,8.092-8.668c2.346,0,3.627,0.885,4.424,0.885
			c0.396,0,0.799-0.307,1.062-0.885h0.754V367.304z"/>
		<path fill="#000100" d="M251.862,374.248l2.744-8.271c0.619-1.855,0.486-2.873-1.236-2.959v-0.752h5.527v0.752
			c-1.682,0-2.699,1.062-3.582,3.67l-6.238,18.441c-1.24,3.627-3.273,5.705-5.176,5.705c-0.662,0-1.148-0.174-1.943-0.662
			l1.018-2.699c0.617,0.268,0.967,0.355,1.502,0.355c1.9,0,3.01-1.105,3.98-3.848l2.037-5.664l-5.615-12.957
			c-0.799-1.812-1.375-2.297-3.189-2.342v-0.752h7.52v0.752c-1.195,0.178-1.682,1.062-1.105,2.385L251.862,374.248z"/>
		<path fill="#000100" d="M172.278,346.886l0.008-9.27c0-5.672-4.074-7.68-7.564-7.68c-3.779,0-6.852,2.543-7.738,6.441l1.066,0.293
			c0.887-3.012,3.188-4.488,5.553-4.488c2.953,0,4.666,2.127,4.666,5.082v1.533c-3.424,2.012-11.58,1.773-11.58,7.74
			c0,3.07,2.717,5.551,5.967,5.551c2.189,0,3.791-0.863,5.861-3.107l0.012-0.008v2.518h7.338v-1.018
			C172.88,350.474,172.278,349.634,172.278,346.886 M168.269,347.187c-0.826,1.773-3.072,2.66-4.311,2.66
			c-1.715,0-3.193-1.713-3.193-3.84c0-4.254,3.545-4.193,7.504-5.906V347.187z"/>
		<path fill="#000100" d="M203.399,374.445l0.008-6.867c0-4.203-3.021-5.695-5.607-5.695c-2.803,0-5.078,1.887-5.736,4.777
			l0.789,0.219c0.656-2.234,2.365-3.328,4.117-3.328c2.189,0,3.459,1.578,3.459,3.768v1.135c-2.539,1.492-8.586,1.316-8.586,5.742
			c0,2.273,2.018,4.113,4.424,4.113c1.623,0,2.812-0.643,4.348-2.305l0.01-0.006v1.865h5.438v-0.758
			C203.845,377.105,203.399,376.486,203.399,374.445 M200.429,374.673c-0.611,1.312-2.277,1.973-3.197,1.973
			c-1.27,0-2.363-1.271-2.363-2.85c0-3.152,2.625-3.105,5.561-4.379V374.673z"/>
	</g>
	<g>
		<g>
			<path fill-rule="evenodd" clip-rule="evenodd" fill="#043A63" d="M257.583,193.323c-1.445-8.908-20.951-41.309-43.018-49.849
				c-1.842-0.712-2.627-1.857-2.783-3.853c-0.285-3.699,4.852-16.918-0.531-14.172c-5.379,2.746-30.791,11.472-54.639-2.959
				c-4.393-2.658-9.719-6.895-12.367-10.885c-4.17-6.279-7.07-15.282,0.303-26.84c-10.959,9.466-16.967,23.27-16.838,36.014
				c0.146,14.118,6.088,26.16,13.73,37.582c4.268,6.381,11.748,13.4,18.725,18.78c2.461,3.989-6.773,1.194-9.301,3.986
				c6.906,11.69,16.49,11.755,22.875,13.313c4.229,1.034,5.854-0.474,10.402,0.807c9.344,2.624,20.98,8.151,20.98,8.151
				c3.941,0.732,14.902,3.23,22.096,3.106c7.664-0.133,15.432-0.095,22.471-3.972C249.71,202.269,258.87,196.97,257.583,193.323z"/>
			<path fill-rule="evenodd" clip-rule="evenodd" fill="#043A63" d="M203.993,66.296c4.799,0.248-12.164,10.692-15.477,15.273
				c-3.098,4.291-5.1,7.183,0.082,17.161c1.9,3.657-0.088,2.272-5.15,0.86c-7.809-2.182-17.941-6.896-26.119-6.263
				c-7.268,0.566-13.254,2.792-15.324,11.211c-3.514-8.621,2.621-22.234,14.041-25.892c11.498-3.682,20.219-5.332,31.855-8.435
				C193.204,68.799,198.437,67.055,203.993,66.296z"/>
			<path fill-rule="evenodd" clip-rule="evenodd" fill="#FFFFFF" d="M237.146,192.073c-3.818-6.122-11.123-16.192-19.188-26.438
				c-0.266,3.218-0.699,4.739-1.506,7.035c-0.525,1.497-1.348,1.257-2.588,0.979c-30.195-10.383-72.848-29.341-76.072-73.63
				c-0.121-1.634,0.947-6.055,1.477-7.283c-6.273,6.589-9.41,22.113-8.691,29.21c4.371,43.108,54.141,64.48,74.266,71.055
				c2.504,0.818,3.117,1.066,2.451,2.184c-1.264,2.12-2.248,3.005-4.963,4.949c10.34,0.122,20.529-2.357,33.104-6.134
				C237.437,193.398,237.774,193.084,237.146,192.073z"/>
			<path fill-rule="evenodd" clip-rule="evenodd" fill="#FFFFFF" d="M183.954,73.941c-8.947,8.835-9.961,14.977-8.699,20.417
				c-7.91-2.392-27.914-8.939-32.93,6.375c-0.547-6.797,6.352-17.825,15.006-20.378C165.187,78.042,179.989,74.716,183.954,73.941z"
				/>
			<path fill-rule="evenodd" clip-rule="evenodd" fill="#043A63" d="M139.269,92.274c-24.096,62.848,66.348,90.76,98.162,100.727
				C207.921,193.001,107.323,151.419,139.269,92.274z"/>
		</g>
		<path fill-rule="evenodd" clip-rule="evenodd" fill="#043A63" d="M141.966,100.858c3.51-14.435,13.432-19.776,38.494-17.669
			c-0.338,1.866-0.293,3.09-3.018,3.042c-14.318-0.238-31.021-3.484-35.184,14.756C142.151,101.458,142.142,100.384,141.966,100.858
			z"/>
	</g>
	<line fill="none" stroke="#A5A7A9" stroke-width="2" stroke-miterlimit="10" x1="294.251" y1="279.156" x2="94.858" y2="279.156"/>
	<g>
		<path fill="#043A63" d="M122.981,227.689l2.082-0.036h7.357c0.072,0.384,0.107,0.748,0.107,1.094c0,0.349-0.035,0.714-0.107,1.096
			h-7.357c-0.885,0-1.58-0.012-2.082-0.036v11.38c-0.359,0.07-0.791,0.105-1.291,0.105c-0.504,0-0.924-0.035-1.258-0.105v-24.302
			l0.215-0.215h13.496c0.119,0.358,0.18,0.705,0.18,1.041c0,0.789-0.525,1.185-1.578,1.185h-5.779c-1.988,0-3.328-0.024-4.02-0.072
			l0.035,5.169V227.689z"/>
		<path fill="#043A63" d="M138.989,241.187V216.67c0.311-0.072,0.725-0.108,1.24-0.108c0.512,0,0.951,0.036,1.307,0.108v24.517
			c-0.355,0.07-0.787,0.105-1.291,0.105C139.743,241.292,139.323,241.257,138.989,241.187z"/>
		<path fill="#043A63" d="M146.706,238.925c0.072-0.814,0.48-1.496,1.221-2.047c2.369,1.652,4.764,2.477,7.178,2.477
			c1.725,0,3.1-0.363,4.129-1.094s1.545-1.729,1.545-2.998c0-1.939-1.316-3.482-3.949-4.63l-4.199-1.83
			c-3.182-1.389-4.773-3.375-4.773-5.96c0-1.842,0.697-3.403,2.1-4.684c1.398-1.28,3.254-1.92,5.562-1.92
			c2.311,0,4.66,0.574,7.055,1.723c0.047,0.838-0.287,1.544-1.006,2.118c-2.154-1.101-4.062-1.651-5.725-1.651
			c-1.664,0-2.986,0.389-3.967,1.166c-0.98,0.778-1.473,1.789-1.473,3.033c0,1.579,1.197,2.884,3.59,3.912l4.057,1.759
			c3.564,1.532,5.348,3.675,5.348,6.425c0,2.082-0.713,3.752-2.135,5.008c-1.424,1.256-3.59,1.885-6.498,1.885
			C151.858,241.616,149.173,240.718,146.706,238.925z"/>
		<path fill="#043A63" d="M183.032,227.438l-0.037-2.657v-8.111c0.289-0.072,0.695-0.108,1.223-0.108
			c0.525,0,0.955,0.036,1.291,0.108v24.517c-0.336,0.07-0.766,0.105-1.291,0.105c-0.527,0-0.934-0.035-1.223-0.105v-8.939
			l0.037-2.655l-2.189,0.035h-7.357l-2.189-0.035l0.033,2.655v8.939c-0.357,0.07-0.787,0.105-1.291,0.105
			c-0.502,0-0.922-0.035-1.256-0.105V216.67c0.312-0.072,0.723-0.108,1.238-0.108c0.514,0,0.951,0.036,1.309,0.108v8.111
			l-0.033,2.657l2.189-0.036h7.357L183.032,227.438z"/>
		<path fill="#043A63" d="M206.724,218.607c1.578,1.436,2.369,3.524,2.369,6.265s-0.797,4.839-2.387,6.299
			c-1.594,1.461-3.691,2.189-6.303,2.189h-2.977v7.826c-0.719,0.143-1.641,0.215-2.766,0.215s-2.033-0.072-2.727-0.215V216.85
			l0.252-0.252c4.02-0.096,6.758-0.144,8.217-0.144C203.038,216.454,205.144,217.172,206.724,218.607z M197.427,220.654v8.578
			c0.693-0.023,1.518-0.035,2.477-0.035c0.957,0,1.717-0.245,2.277-0.736c0.564-0.49,0.924-1.022,1.078-1.597
			c0.156-0.575,0.234-1.322,0.234-2.244c0-0.92-0.258-1.807-0.773-2.656c-0.514-0.849-1.357-1.274-2.529-1.274
			C199.017,220.689,198.095,220.679,197.427,220.654z"/>
		<path fill="#043A63" d="M216.63,235.944c-0.67,0-1.174-0.012-1.508-0.035l-1.58,5.312c-0.551,0.143-1.352,0.215-2.404,0.215
			s-1.902-0.133-2.549-0.395l-0.217-0.285l7.969-24.087c0.863-0.145,1.926-0.216,3.197-0.216c1.268,0,2.309,0.084,3.123,0.252
			l7.752,24.121c-0.791,0.453-1.734,0.682-2.836,0.682c-1.1,0-1.891-0.209-2.369-0.627c-0.479-0.42-0.875-1.203-1.186-2.352
			l-0.752-2.621c-0.336,0.023-0.852,0.035-1.543,0.035H216.63z M216.378,231.638l1.51-0.036h2.762c0.119,0,0.334,0.007,0.646,0.018
			c0.311,0.013,0.551,0.019,0.719,0.019l-2.729-9.907h-0.18c-0.215,1.173-0.789,3.375-1.723,6.604L216.378,231.638z"/>
		<path fill="#043A63" d="M240.536,221.192l0.035,2.656v17.338c-0.742,0.143-1.656,0.215-2.746,0.215
			c-1.088,0-2.004-0.072-2.746-0.215v-17.338l0.037-2.656h-0.037l-2.225,0.035h-3.805c-0.121-0.692-0.18-1.453-0.18-2.279
			c0-0.825,0.059-1.584,0.18-2.278h17.588c0.191,0.622,0.287,1.352,0.287,2.188c0,0.839-0.227,1.443-0.682,1.813
			c-0.455,0.371-1.184,0.556-2.188,0.556h-1.26l-2.225-0.035H240.536z"/>
		<path fill="#043A63" d="M263.22,226.289l-0.035-2.656v-6.963c0.717-0.145,1.633-0.216,2.746-0.216s2.027,0.071,2.746,0.216v24.517
			c-0.742,0.143-1.656,0.215-2.746,0.215s-2.006-0.072-2.746-0.215v-7.719l0.035-2.656l-1.832,0.036h-4.412l-1.83-0.036l0.033,2.656
			v7.719c-0.717,0.143-1.639,0.215-2.762,0.215c-1.127,0-2.035-0.072-2.729-0.215V216.67c0.693-0.145,1.602-0.216,2.729-0.216
			c1.123,0,2.045,0.071,2.762,0.216v6.963l-0.033,2.656l1.83-0.036h4.412L263.22,226.289z"/>
	</g>
</g>
</svg>
