<?xml version="1.0" encoding="utf-8"?>
<!-- Generator: Adobe Illustrator 16.0.0, SVG Export Plug-In . SVG Version: 6.00 Build 0)  -->
<!DOCTYPE svg PUBLIC "-//W3C//DTD SVG 1.1//EN" "http://www.w3.org/Graphics/SVG/1.1/DTD/svg11.dtd">
<svg version="1.1" id="fishpath-tnc-horizontal" xmlns="http://www.w3.org/2000/svg" xmlns:xlink="http://www.w3.org/1999/xlink"
	 x="0px" y="0px" width="721.741px" height="184.704px" viewBox="0 0 721.741 184.704" enable-background="new 0 0 721.741 184.704"
	 xml:space="preserve">
<g id="horizontal_pairing">
	<g>
		<path fill="#FFFFFF" d="M633.498,66.006c-0.225,1.294-0.312,4.474,1.547,4.067c2.479-0.532,2.156-0.79,3.514-1.974
			c0.904-0.794,3.127,1.374,0.037,4.822c-1.688,1.89-2.061,2.47-1.156,3.562c0.939,1.132,3.387,1.568,3.387,5.058
			c0,3.066,3.938,0.845,4.889-0.352c0.932-1.168,1.619-6.502,4.271-2.618c1.881,2.763-1.334,8.675,2.537,9.254
			c3.176,0.479,3.732,4.099,3.822,5.021c0.012,0.131,0.018,0.213,0.018,0.213c8.121-7.797,2.709-17.889,2.508-19.115
			c-0.348-2.188,0.832-1.388,2.279-0.046c-5.988-11.232-17.803-18.878-31.41-18.878c-2.35,0-4.645,0.236-6.867,0.67
			C629.883,55.838,634.781,58.642,633.498,66.006"/>
		<path fill="#FFFFFF" d="M652.154,108.903c-2.184,0.873-3.133-0.527-4.754,1.055c-1.781,1.74,3.916,5.157-6.572,2.766
			c-4.684-1.07-4.045,4.024-9.307,1.352c-1.455-3.469-1.496-5.512-0.256-7.68c1.453-2.545,1.973-1.688,1.092-4.484
			c-0.35-1.094-0.014-1.578,0.562-3.102c0.574-1.52-0.164-3.627-2.305-3.508c-2.85,0.16-2.52,1.453-4.277,2.633
			c-1.18,0.789-3.168-3.223,1-6.832c2.285-1.969,2.82-2.605,2.066-4.12c-0.781-1.578-2.227-1.01-2.811-2.821
			c-0.447-1.393,0.248-4.013-1.754-4.639c-2.273-0.71-4.084,2.538-5.393,3.812c-1.531,1.479-3.199,4.128-4.021,2.016
			c-1.457-3.756,5.244-9.352,1.115-10.838c-3.893-1.398-5.158-5.484-5.158-5.484c-10.682,7.922-5.623,14.891-6.514,16.124
			c-0.889,1.234-2.602-1.5-4.041-0.191c-1.111,1.012-2.102,7.487,4.74,11.599c2.594,1.555,3.443,1.953,2.822,2.895
			c-0.498,0.746-2.574,0.117-2.545,1.828c0.07,3.434,5.576,2.402,6.578,6.699c0.941,4.018,18.02,6.422,18.02,6.422
			c-0.021-0.02,0.074,0.008,0.213,0.047l0.812,0.453c0.254,1.059,1.27,3.484,3.646,4.705c3.932,2.025-0.242,1.053,0.293,2.479
			c0.271,0.727,3.061,2.605,8.02,1.465c6.852-2.861,12.619-7.809,16.512-14.049C655.697,106.19,655.383,106.875,652.154,108.903"/>
		<path fill="#71A850" d="M630.656,114.45c-0.139-0.039-0.232-0.066-0.217-0.049c0,0-17.074-2.403-18.016-6.418
			c-1-4.299-6.51-3.271-6.578-6.701c-0.029-1.709,2.047-1.082,2.543-1.828c0.621-0.941-0.227-1.34-2.82-2.895
			c-6.842-4.109-5.852-10.589-4.74-11.599c1.439-1.308,3.15,1.426,4.041,0.192c0.891-1.234-4.166-8.202,6.514-16.124
			c0,0,1.266,4.086,5.158,5.483c4.129,1.486-2.574,7.082-1.117,10.838c0.822,2.112,2.492-0.537,4.021-2.018
			c1.311-1.271,3.121-4.52,5.396-3.81c2,0.626,1.305,3.246,1.754,4.638c0.582,1.81,2.027,1.242,2.809,2.822
			c0.752,1.514,0.219,2.15-2.066,4.119c-4.168,3.605-2.182,7.621-1.002,6.83c1.76-1.18,1.428-2.475,4.281-2.631
			c2.139-0.121,2.875,1.988,2.303,3.51c-0.574,1.52-0.91,2.006-0.566,3.098c0.883,2.799,0.365,1.941-1.086,4.484
			c-1.246,2.172-1.201,4.213,0.254,7.682c5.26,2.672,4.623-2.42,9.307-1.352c10.488,2.391,4.789-1.023,6.572-2.766
			c1.621-1.582,2.57-0.18,4.754-1.055c3.236-2.031,3.545-2.715,7.807,0.621c3.424-5.473,5.416-11.941,5.416-18.873
			c0-6.028-1.506-11.706-4.152-16.688c-1.484-1.382-2.707-2.242-2.354-0.018c0.201,1.226,5.615,11.315-2.508,19.116
			c0,0-0.006-0.084-0.018-0.215c-0.09-0.922-0.646-4.544-3.824-5.021c-3.867-0.578-0.652-6.49-2.535-9.252
			c-2.654-3.886-3.34,1.45-4.27,2.618c-0.953,1.195-4.889,3.418-4.889,0.352c0-3.492-2.449-3.926-3.389-5.058
			c-0.904-1.095-0.533-1.672,1.156-3.562c3.09-3.447,0.867-5.616-0.037-4.822c-1.355,1.185-1.033,1.442-3.514,1.975
			c-1.859,0.406-1.773-2.774-1.549-4.068c1.285-7.374-3.619-10.174-10.646-10.315c-16.383,3.212-28.742,17.64-28.742,34.96
			c0,19.68,15.953,35.635,35.631,35.635c4.857,0,9.488-0.98,13.709-2.738c-4.971,1.152-7.766-0.736-8.039-1.461
			c-0.535-1.426,3.637-0.453-0.295-2.477c-2.377-1.223-3.391-3.648-3.645-4.709L630.656,114.45z"/>
		<path fill="#71A850" d="M632.664,115.544c0,0-23.424-9.094-24.236-32.143C608.428,83.401,610.689,100.922,632.664,115.544"/>
		<path fill="#71A850" d="M632.49,55.076c0.668,0.073,5.711,0.746,11.039,4.146c1.98,1.854,4.783,6.404,0.455,15.734
			c0,0,5.545-7.486,4.145-12.03c4.65,4.666,8.561,12.062,8.709,23.784C656.838,86.709,662.006,57.345,632.49,55.076"/>
		<path fill="#71A850" d="M655.9,113.321c-1.785,1.082-4.686,3.639-9.422,2.145c0,0,1.854,1.426,4.834,1.352
			c-3.803,1.961-7.926,2.43-14.451,0.799c0,0,13.211,7.791,22.441-7.124C659.303,110.493,657.014,112.645,655.9,113.321"/>
		<path fill="#000100" d="M406.451,81.85c0,2.57,0.486,3.28,2.311,3.28v0.636h-7.568V85.13c1.529,0,2.426-0.448,2.426-3.393V65.453
			h-3.098c-2.867,0-4.172,0.815-4.357,3.052h-0.635v-4.88h0.635c0.299,0.26,0.637,0.446,1.158,0.594
			c0.484,0.118,1.152,0.187,2.051,0.187h11.18c1.861,0,2.717-0.223,3.389-0.78h0.67v4.88h-0.406
			c-0.414-1.786-1.119-3.052-4.512-3.052h-3.242V81.85z"/>
		<path fill="#000100" d="M429.49,82.593c0,2.016,0.371,2.535,2.123,2.535v0.639h-6.857v-0.639c1.795,0,2.201-0.411,2.201-2.124
			v-6.52c0-1.756-1.045-2.872-2.645-2.872c-1.492,0-2.574,0.708-3.842,2.498v7.232c0,1.374,0.559,1.785,2.195,1.785v0.639h-7.078
			v-0.639c1.975-0.038,2.354-0.411,2.354-2.535V65.413c0-1.714-0.49-1.976-2.354-1.976v-0.632l4.25-0.448h0.633v12.486
			c1.678-1.94,2.91-2.645,4.617-2.645c2.205,0,4.402,1.452,4.402,4.58V82.593z"/>
		<path fill="#000100" d="M435.656,77.714c-0.07,5.924,3.465,7.416,5.258,7.416c1.828,0,2.756-0.634,4.66-2.758v0.972
			c-1.604,2.048-3.135,2.826-5.443,2.826c-4.135,0-7.121-2.864-7.121-6.856c0-3.984,2.908-7.116,6.635-7.116
			c3.057,0,5.887,2.46,5.705,5.517H435.656z M442.852,77.08c0.111-2.907-1.865-4.1-3.541-4.1c-2.199,0-3.506,1.641-3.654,4.1
			H442.852z"/>
		<path fill="#000100" d="M479.623,93.774h-1.004l-23.869-29.42h-0.117v23.748c0,3.428,1.361,4.668,4.432,4.668v1.004h-10.277V92.77
			c2.832,0,4.191-0.887,4.191-5.79V67.19c0-3.781-1.004-5.908-5.02-6.264v-1.002h8.682l21.152,26.348h0.117V66.48
			c0-4.432-1.184-5.554-4.135-5.554v-1.002h10.221v1.002c-3.307,0-4.373,1.36-4.373,5.316V93.774z"/>
		<path fill="#000100" d="M510.857,72.802h7.266v1.534h-7.266v13.472c0,2.894,1.477,4.372,3.781,4.372
			c1.539,0,2.66-0.594,3.898-2.01l0.648,0.768c-1.832,2.305-3.955,3.484-6.318,3.484c-3.545,0-6.025-2.48-6.025-6.085V74.336h-3.959
			v-1.002c2.836-1.416,5.197-3.958,6.971-7.564h1.004V72.802z"/>
		<path fill="#000100" d="M541.939,89.815c0,2.303,0.77,2.955,3.602,2.955v1.004l-7.617,0.414v-3.84h-0.117
			c-2.07,2.717-4.49,4.074-7.328,4.074c-4.137,0-6.852-3.129-6.852-7.029V76.702c0-2.011-0.709-2.778-3.723-2.778v-1.004l6.734-0.65
			h1.006v14.946c0,2.957,1.889,4.727,4.725,4.727c2.008,0,3.84-1.121,5.555-3.427V77.233c0-2.896-0.477-3.25-4.076-3.31v-1.004
			l7.088-0.65h1.004V89.815z"/>
		<path fill="#000100" d="M554.92,89.815c0,2.303,0.709,2.955,3.484,2.955v1.004h-11.047V92.77c3.191,0,3.547-0.828,3.547-4.017
			V77.351c0-3.072-0.77-3.428-4.314-3.428v-1.004l7.326-0.65h1.004v4.548c3.9-3.365,5.729-4.548,7.148-4.548
			c1.184,0,2.777,0.71,3.842,1.654l-1.596,3.722c-1.713-0.943-3.549-1.83-4.961-1.83c-1.361,0-2.543,0.708-4.434,2.54V89.815z"/>
		<path fill="#000100" d="M570.432,81.014c-0.117,9.393,5.492,11.756,8.33,11.756c2.895,0,4.369-1.006,7.385-4.372v1.538
			c-2.541,3.248-4.965,4.486-8.627,4.486c-6.557,0-11.285-4.547-11.285-10.868c0-6.322,4.609-11.284,10.518-11.284
			c4.844,0,9.334,3.897,9.037,8.744H570.432z M581.834,80.01c0.178-4.608-2.953-6.5-5.613-6.5c-3.484,0-5.555,2.6-5.789,6.5H581.834
			z"/>
		<path fill="#000100" d="M416.586,102.075c-1.236-4.775-3.848-6.857-8.225-6.857c-6.105,0-9.379,4.912-9.379,11.414
			c0,7.608,3.938,12.604,9.641,12.604c3.98,0,6.947-1.857,8.85-5.574l0.662,0.621c-1.682,4.023-5.705,6.543-10.57,6.543
			c-6.102,0-12.473-4.156-12.473-12.604c0-8.045,5.527-13.975,13.092-13.975c3.184,0,5.574,1.062,7.074,1.062
			c0.668,0,1.105-0.268,1.373-0.797h0.709v7.562H416.586z"/>
		<path fill="#000100" d="M428.295,120.696c-4.91,0-8.58-3.539-8.58-8.276c0-4.771,3.67-8.311,8.58-8.311s8.58,3.539,8.58,8.311
			C436.875,117.157,433.205,120.696,428.295,120.696 M428.295,104.995c-3.314,0-5.309,2.918-5.309,7.426
			c0,4.03,1.682,7.391,5.309,7.391c3.713,0,5.307-3.582,5.307-7.391C433.602,108.487,431.922,104.995,428.295,104.995"/>
		<path fill="#000100" d="M455.045,116.806c0,2.029,0.443,2.652,2.654,2.652v0.75h-8.357v-0.75c2.121,0,2.697-0.488,2.697-1.947
			v-8.182c0-2.52-1.814-3.58-3.494-3.58c-1.549,0-2.92,0.971-4.467,3.049v7.653c0,2.385,0.307,3.008,2.654,3.008v0.75h-8.273v-0.75
			c2.078,0,2.609-0.18,2.609-3.008v-8.801c0-1.9-0.486-2.301-2.609-2.301v-0.75l4.865-0.488h0.754v3.137
			c1.855-2.117,3.67-3.137,5.66-3.137c2.607,0,5.307,1.859,5.307,5.617V116.806z"/>
		<path fill="#000100" d="M467.99,108.93c-0.311-2.609-2.033-3.934-3.895-3.934c-1.545,0-2.607,0.84-2.607,2.121
			c0,3.98,8.225,2.918,8.225,8.756c0,2.609-2.252,4.822-4.953,4.822c-1.727,0-3.227-1.152-3.98-1.152
			c-0.572,0-0.975,0.488-1.02,1.062h-0.75v-5.352h0.75c0.668,3.273,3.102,4.555,5.045,4.555c1.549,0,2.744-1.152,2.744-2.699
			c0-4.375-8.318-3.184-8.318-8.489c0-2.434,2.17-4.512,4.777-4.512c1.641,0,2.125,0.754,3.186,0.754
			c0.396,0,0.707-0.223,0.928-0.754h0.754v4.82H467.99z"/>
		<path fill="#000100" d="M474.521,110.657c-0.088,7.028,4.113,8.799,6.236,8.799c2.168,0,3.273-0.75,5.529-3.271v1.148
			c-1.902,2.43-3.719,3.363-6.457,3.363c-4.91,0-8.449-3.406-8.449-8.141c0-4.73,3.449-8.445,7.873-8.445
			c3.627,0,6.99,2.922,6.768,6.547H474.521z M483.061,109.903c0.131-3.449-2.213-4.861-4.203-4.861
			c-2.609,0-4.156,1.943-4.336,4.861H483.061z"/>
		<path fill="#000100" d="M493.816,117.247c0,1.723,0.529,2.209,2.609,2.209v0.756h-8.271v-0.756c2.387,0,2.652-0.619,2.652-3.006
			v-8.536c0-2.301-0.578-2.564-3.227-2.564v-0.752l5.48-0.488h0.756v3.404c2.916-2.521,4.289-3.404,5.352-3.404
			c0.885,0,2.078,0.531,2.873,1.24l-1.195,2.783c-1.281-0.705-2.652-1.369-3.715-1.369c-1.018,0-1.902,0.529-3.314,1.9V117.247z"/>
		<path fill="#000100" d="M512.479,116.403l3.053-7.917c0.754-2.033,0.754-2.959-1.549-3.139v-0.75h5.75v0.75
			c-1.812,0.18-2.254,0.574-3.008,2.254l-5.043,12.958h-0.75l-5-12.293c-1.061-2.562-1.459-2.828-3.314-2.918v-0.75h7.562v0.75
			c-1.506,0.133-1.9,0.973-1.193,2.695L512.479,116.403z"/>
		<path fill="#000100" d="M550.951,116.806c0,2.029,0.445,2.652,2.652,2.652v0.75h-8.357v-0.75c2.123,0,2.699-0.488,2.699-1.947
			v-8.182c0-2.52-1.816-3.58-3.496-3.58c-1.549,0-2.916,0.971-4.467,3.049v7.653c0,2.385,0.312,3.008,2.656,3.008v0.75h-8.273v-0.75
			c2.082,0,2.611-0.18,2.611-3.008v-8.801c0-1.9-0.49-2.301-2.611-2.301v-0.75l4.867-0.488h0.75v3.137
			c1.859-2.117,3.672-3.137,5.66-3.137c2.613,0,5.309,1.859,5.309,5.617V116.806z"/>
		<path fill="#000100" d="M568.357,109.637h-0.754c-0.664-2.828-2.652-4.643-5.264-4.643c-3.094,0-5.262,2.654-5.262,6.5
			c0,4.288,2.697,7.874,5.883,7.874c1.9,0,4.201-1.016,5.838-3.273v1.152c-1.68,2.297-4.07,3.447-6.898,3.447
			c-4.648,0-7.875-3.229-7.875-7.918c0-4.818,3.629-8.666,8.094-8.666c2.346,0,3.625,0.885,4.424,0.885
			c0.396,0,0.797-0.309,1.061-0.885h0.754V109.637z"/>
		<path fill="#000100" d="M579.592,116.579l2.744-8.27c0.617-1.857,0.486-2.873-1.236-2.959v-0.752h5.525v0.752
			c-1.682,0-2.697,1.061-3.58,3.67l-6.238,18.442c-1.242,3.625-3.275,5.703-5.176,5.703c-0.664,0-1.148-0.172-1.945-0.66
			l1.018-2.699c0.619,0.266,0.969,0.355,1.502,0.355c1.9,0,3.012-1.105,3.982-3.848l2.037-5.664l-5.617-12.958
			c-0.797-1.812-1.373-2.297-3.188-2.342v-0.752h7.518v0.752c-1.193,0.178-1.68,1.061-1.104,2.385L579.592,116.579z"/>
		<path fill="#000100" d="M500.006,89.219l0.008-9.269c0-5.672-4.074-7.681-7.564-7.681c-3.777,0-6.85,2.542-7.736,6.44l1.064,0.294
			c0.889-3.012,3.188-4.488,5.555-4.488c2.951,0,4.666,2.126,4.666,5.082v1.532c-3.424,2.012-11.58,1.774-11.58,7.74
			c0,3.071,2.717,5.552,5.967,5.552c2.189,0,3.791-0.863,5.861-3.109l0.012-0.008v2.52h7.338v-1.02
			C500.607,92.805,500.006,91.965,500.006,89.219 M495.998,89.52c-0.828,1.773-3.072,2.66-4.312,2.66
			c-1.715,0-3.191-1.715-3.191-3.842c0-4.254,3.543-4.192,7.504-5.906V89.52z"/>
		<path fill="#000100" d="M531.127,116.778l0.008-6.868c0-4.205-3.021-5.695-5.607-5.695c-2.803,0-5.078,1.885-5.736,4.777
			l0.791,0.219c0.654-2.234,2.363-3.328,4.115-3.328c2.191,0,3.461,1.578,3.461,3.766v1.137c-2.541,1.49-8.586,1.316-8.586,5.741
			c0,2.275,2.016,4.115,4.424,4.115c1.621,0,2.811-0.645,4.348-2.305l0.008-0.008v1.867h5.438v-0.758
			C531.572,119.438,531.127,118.817,531.127,116.778 M528.158,117.007c-0.613,1.311-2.277,1.971-3.199,1.971
			c-1.27,0-2.363-1.27-2.363-2.848c0-3.152,2.625-3.107,5.562-4.379V117.007z"/>
	</g>
	<line fill="none" stroke="#A5A7A9" stroke-width="2" stroke-miterlimit="10" x1="356.795" y1="34.186" x2="356.795" y2="136.853"/>
	<g>
		<path fill-rule="evenodd" clip-rule="evenodd" fill="#043A63" d="M118.852,122.132c-0.334-4.514-8.664-21.553-19.314-26.784
			c-0.889-0.438-1.232-1.043-1.221-2.047c0.018-1.859,3.164-8.241,0.354-7.105c-2.809,1.139-15.885,4.387-27.17-3.865
			c-2.076-1.52-4.551-3.87-5.703-5.979c-1.809-3.319-2.863-7.943,1.326-13.396c-5.891,4.249-9.494,10.884-9.988,17.257
			c-0.545,7.06,1.9,13.335,5.219,19.376c1.852,3.373,5.283,7.209,8.533,10.201c1.055,2.1-3.436,0.301-4.822,1.586
			c2.941,6.141,7.725,6.594,10.848,7.651c2.068,0.701,2.945,0.02,5.162,0.857c4.555,1.719,10.125,4.988,10.125,4.988
			c1.938,0.541,7.305,2.268,10.904,2.52c3.834,0.27,7.713,0.629,11.4-1C114.526,126.259,119.334,124.011,118.852,122.132z"/>
		<path fill-rule="evenodd" clip-rule="evenodd" fill="#043A63" d="M97.629,56.326c2.387,0.334-6.543,4.811-8.4,6.954
			c-1.734,2.008-2.861,3.366-0.707,8.577c0.787,1.91-0.145,1.132-2.613,0.204c-3.805-1.431-8.662-4.229-12.773-4.27
			c-3.656-0.035-6.746,0.815-8.146,4.932c-1.379-4.461,2.281-10.994,8.146-12.322c5.904-1.337,10.334-1.781,16.283-2.822
			C92.129,57.105,94.821,56.461,97.629,56.326z"/>
		<path fill-rule="evenodd" clip-rule="evenodd" fill="#FFFFFF" d="M108.696,120.614c-1.643-3.225-4.85-8.577-8.432-14.047
			c-0.273,1.598-0.557,2.336-1.061,3.449c-0.326,0.727-0.727,0.568-1.336,0.375c-14.629-6.506-35.111-17.844-34.789-40.111
			c0.012-0.821,0.74-2.982,1.061-3.573c-3.424,3.018-5.67,10.637-5.623,14.214c0.299,21.729,24.232,34.581,34,38.745
			c1.215,0.52,1.51,0.67,1.129,1.199c-0.725,1.004-1.256,1.402-2.695,2.256c5.16,0.512,10.359-0.279,16.807-1.617
			C108.782,121.29,108.963,121.147,108.696,120.614z"/>
		<path fill-rule="evenodd" clip-rule="evenodd" fill="#FFFFFF" d="M87.284,59.269c-4.857,4.023-5.631,7.048-5.238,9.821
			c-3.848-1.542-13.557-5.688-16.73,1.745c0.021-3.419,3.951-8.628,8.387-9.525C77.727,60.498,85.27,59.483,87.284,59.269z"/>
		<path fill-rule="evenodd" clip-rule="evenodd" fill="#043A63" d="M64.157,66.475c-14.785,30.346,29.18,48.247,44.641,54.616
			C94.053,119.802,45.612,94.629,64.157,66.475z"/>
		<path fill-rule="evenodd" clip-rule="evenodd" fill="#043A63" d="M65.129,70.883c2.385-7.06,7.576-9.295,20.004-7.146
			c-0.25,0.918-0.281,1.53-1.641,1.388c-7.143-0.743-15.346-3.097-18.223,5.835C65.196,71.19,65.237,70.653,65.129,70.883z"/>
	</g>
	<g>
		<path fill="#043A63" d="M110.163,73.055l2.938-0.051h10.381c0.102,0.54,0.152,1.055,0.152,1.544c0,0.49-0.051,1.005-0.152,1.544
			H113.1c-1.248,0-2.229-0.017-2.938-0.05v16.052c-0.506,0.102-1.113,0.152-1.82,0.152c-0.711,0-1.303-0.051-1.775-0.152V57.813
			l0.305-0.304h19.039c0.17,0.507,0.254,0.996,0.254,1.469c0,1.114-0.744,1.671-2.229,1.671h-8.152
			c-2.803,0-4.693-0.033-5.672-0.102l0.051,7.292V73.055z"/>
		<path fill="#043A63" d="M132.747,92.094V57.509c0.439-0.101,1.02-0.151,1.748-0.151c0.725,0,1.342,0.051,1.848,0.151v34.585
			c-0.506,0.102-1.115,0.152-1.824,0.152C133.811,92.247,133.219,92.196,132.747,92.094z"/>
		<path fill="#043A63" d="M143.631,88.904c0.102-1.147,0.676-2.109,1.723-2.886c3.342,2.329,6.719,3.494,10.127,3.494
			c2.432,0,4.371-0.516,5.822-1.545c1.451-1.03,2.18-2.438,2.18-4.229c0-2.734-1.859-4.911-5.57-6.531l-5.924-2.583
			c-4.492-1.958-6.734-4.761-6.734-8.406c0-2.599,0.986-4.801,2.961-6.607c1.975-1.806,4.59-2.709,7.848-2.709
			s6.576,0.81,9.951,2.431c0.068,1.182-0.406,2.177-1.418,2.987c-3.039-1.553-5.73-2.329-8.076-2.329
			c-2.348,0-4.213,0.549-5.596,1.646c-1.385,1.098-2.074,2.523-2.074,4.278c0,2.229,1.686,4.069,5.061,5.521l5.723,2.48
			c5.031,2.16,7.547,5.183,7.547,9.063c0,2.938-1.006,5.291-3.014,7.064c-2.01,1.771-5.066,2.658-9.166,2.658
			C150.899,92.702,147.11,91.436,143.631,88.904z"/>
		<path fill="#043A63" d="M194.875,72.701l-0.051-3.748V57.509c0.404-0.101,0.979-0.151,1.723-0.151c0.742,0,1.35,0.051,1.82,0.151
			v34.585c-0.471,0.102-1.078,0.152-1.82,0.152c-0.744,0-1.318-0.051-1.723-0.152V79.486l0.051-3.747l-3.09,0.051h-10.379
			l-3.09-0.051l0.053,3.747v12.608c-0.508,0.102-1.117,0.152-1.824,0.152c-0.709,0-1.299-0.051-1.773-0.152V57.509
			c0.439-0.101,1.023-0.151,1.748-0.151c0.727,0,1.342,0.051,1.85,0.151v11.443l-0.053,3.748l3.09-0.052h10.379L194.875,72.701z"/>
		<path fill="#043A63" d="M228.295,60.244c2.227,2.025,3.342,4.972,3.342,8.836c0,3.866-1.121,6.828-3.367,8.887
			c-2.246,2.06-5.209,3.089-8.887,3.089h-4.203v11.039c-1.012,0.203-2.312,0.305-3.898,0.305c-1.588,0-2.869-0.102-3.848-0.305
			V57.762l0.354-0.354c5.672-0.135,9.537-0.203,11.596-0.203C223.094,57.206,226.067,58.218,228.295,60.244z M215.18,63.129v12.104
			c0.979-0.033,2.145-0.052,3.496-0.052c1.348,0,2.42-0.346,3.213-1.038c0.795-0.691,1.301-1.442,1.52-2.253
			c0.221-0.81,0.33-1.864,0.33-3.165c0-1.299-0.363-2.548-1.088-3.746c-0.729-1.198-1.918-1.799-3.572-1.799
			C217.426,63.18,216.125,63.164,215.18,63.129z"/>
		<path fill="#043A63" d="M242.272,84.701c-0.947,0-1.656-0.017-2.127-0.05l-2.229,7.494c-0.777,0.203-1.906,0.303-3.393,0.303
			s-2.684-0.186-3.594-0.557l-0.305-0.406l11.24-33.976c1.217-0.202,2.717-0.304,4.508-0.304c1.789,0,3.258,0.119,4.404,0.354
			l10.938,34.026c-1.113,0.641-2.449,0.963-4,0.963c-1.553,0-2.668-0.295-3.344-0.887c-0.674-0.588-1.23-1.695-1.67-3.315
			l-1.064-3.696c-0.471,0.033-1.195,0.05-2.176,0.05H242.272z M241.918,78.625l2.125-0.05h3.898c0.168,0,0.473,0.008,0.912,0.024
			c0.438,0.018,0.777,0.025,1.014,0.025l-3.85-13.976h-0.252c-0.305,1.655-1.115,4.76-2.432,9.317L241.918,78.625z"/>
		<path fill="#043A63" d="M275.995,63.889l0.051,3.747v24.458c-1.047,0.203-2.338,0.305-3.875,0.305
			c-1.535,0-2.826-0.102-3.873-0.305V67.636l0.051-3.747h-0.051l-3.139,0.051h-5.367c-0.17-0.979-0.252-2.051-0.252-3.215
			s0.082-2.236,0.252-3.216h24.811c0.271,0.878,0.404,1.907,0.404,3.089s-0.32,2.034-0.961,2.558
			c-0.643,0.523-1.672,0.784-3.09,0.784h-1.771l-3.139-0.051H275.995z"/>
		<path fill="#043A63" d="M307.995,71.081l-0.049-3.748v-9.823c1.012-0.202,2.303-0.304,3.873-0.304s2.861,0.102,3.873,0.304v34.585
			c-1.047,0.203-2.338,0.305-3.873,0.305s-2.828-0.102-3.873-0.305V81.208l0.049-3.747l-2.582,0.051h-6.229l-2.58-0.051l0.049,3.747
			v10.887c-1.012,0.203-2.312,0.305-3.898,0.305s-2.869-0.102-3.85-0.305V57.509c0.98-0.202,2.264-0.304,3.85-0.304
			s2.887,0.102,3.898,0.304v9.823l-0.049,3.748l2.58-0.052h6.229L307.995,71.081z"/>
	</g>
</g>
</svg>
